<svg width="142" height="142" viewBox="0 0 142 142" fill="none" xmlns="http://www.w3.org/2000/svg">
<path d="M133.379 76.2299L133.564 71.8833L140.847 72.1927L140.809 73.1L134.355 72.8259L134.209 76.2652L133.379 76.2299Z" fill="white"/>
<path d="M134.096 78.1035C134.838 77.6166 135.792 77.4613 136.957 77.6377C138.132 77.8154 138.994 78.2489 139.545 78.938C140.106 79.6286 140.305 80.5066 140.144 81.5719C139.983 82.6341 139.533 83.412 138.793 83.9059C138.063 84.4012 137.111 84.5599 135.936 84.3822C134.768 84.2054 133.903 83.7717 133.343 83.0811C132.788 82.3979 132.591 81.522 132.753 80.4534C132.914 79.3849 133.362 78.6016 134.096 78.1035ZM137.329 78.6669L136.32 78.5142C135.574 78.4012 134.955 78.5298 134.464 78.9001C133.973 79.2735 133.672 79.8319 133.559 80.5754C133.444 81.335 133.568 81.9596 133.932 82.4493C134.299 82.9426 134.851 83.245 135.588 83.3566L136.597 83.5092C137.343 83.6222 137.956 83.4894 138.435 83.1108C138.922 82.7434 139.221 82.1895 139.333 81.4492C139.448 80.6896 139.326 80.0637 138.965 79.5713C138.605 79.0789 138.06 78.7775 137.329 78.6669Z" fill="white"/>
<path d="M130.548 90.571L130.804 89.6238L132.63 89.4559L133.507 86.2229L132.015 85.156L132.264 84.237L138.581 88.7971L138.309 89.8009L130.548 90.571ZM135.246 87.4582L134.16 86.6883L133.429 89.384L134.757 89.2632L137.551 89.0896L137.564 89.0424L135.246 87.4582Z" fill="white"/>
<path d="M129.08 94.3817L130.178 91.6445L136.944 94.3583L135.846 97.0956C135.45 98.0835 134.88 98.6914 134.136 98.9192C133.392 99.1469 132.453 99.033 131.317 98.5774C130.178 98.1205 129.421 97.554 129.047 96.8779C128.673 96.2017 128.684 95.3696 129.08 94.3817ZM135.836 94.8922L130.61 92.7964L129.854 94.6816C129.584 95.3554 129.549 95.9148 129.749 96.3599C129.951 96.8092 130.409 97.1768 131.122 97.4628L132.232 97.9082C132.951 98.1966 133.538 98.2461 133.993 98.0567C134.451 97.8686 134.813 97.4421 135.079 96.7775L135.836 94.8922Z" fill="white"/>
<path d="M133.264 102.782L126.768 99.4751L127.179 98.6657L133.676 101.973L133.264 102.782Z" fill="white"/>
<path d="M125.02 102.766L125.51 102.002L131.646 105.938L131.037 106.887L123.768 106.825L123.742 106.866L125.641 108.003L128.957 110.13L128.472 110.886L122.336 106.95L122.945 106.001L130.209 106.072L130.23 106.039L128.411 104.941L125.02 102.766Z" fill="white"/>
<path d="M123.811 111.12C124.73 111.908 125.234 112.755 125.324 113.66C125.421 114.566 125.135 115.41 124.465 116.191C123.952 116.789 123.351 117.172 122.662 117.34C121.989 117.504 121.357 117.419 120.766 117.083L121.383 116.364C121.765 116.568 122.181 116.607 122.628 116.48C123.075 116.354 123.476 116.084 123.83 115.672C124.309 115.113 124.531 114.517 124.496 113.882C124.462 113.248 124.171 112.696 123.625 112.228L122.758 111.484C122.237 111.037 121.671 110.836 121.061 110.883C120.444 110.937 119.906 111.231 119.449 111.765C118.997 112.291 118.795 112.859 118.841 113.47C118.888 114.085 119.184 114.633 119.729 115.113L121.42 113.141L122.013 113.65L119.651 116.403L116.72 113.888L117.206 113.321L118.23 114.078L118.275 114.026C118.101 113.538 118.073 113.048 118.19 112.557C118.307 112.066 118.555 111.599 118.935 111.157C119.585 110.398 120.346 110.017 121.216 110.013C122.081 110.009 122.946 110.378 123.811 111.12Z" fill="white"/>
<path d="M112.8 121.618C113.039 121.923 113.138 122.249 113.096 122.596C113.054 122.944 112.885 123.234 112.587 123.467C112.296 123.696 111.971 123.789 111.615 123.746C111.256 123.705 110.959 123.535 110.724 123.235C110.488 122.936 110.396 122.607 110.446 122.249C110.489 121.892 110.653 121.603 110.937 121.38C111.237 121.145 111.562 121.048 111.914 121.091C112.264 121.135 112.559 121.311 112.8 121.618Z" fill="white"/>
<path d="M98.1949 127.499L102.035 125.454L105.461 131.889L104.66 132.316L101.623 126.614L98.585 128.232L98.1949 127.499Z" fill="white"/>
<path d="M97.0133 129.021C97.8092 129.413 98.4264 130.157 98.8651 131.25C99.3074 132.353 99.3712 133.317 99.0565 134.141C98.7453 134.974 98.0898 135.591 97.0897 135.992C96.0927 136.392 95.1939 136.399 94.3932 136.011C93.5961 135.633 92.9764 134.892 92.5341 133.79C92.0942 132.693 92.0298 131.728 92.341 130.895C92.6485 130.07 93.3037 129.456 94.3068 129.054C95.3099 128.652 96.212 128.641 97.0133 129.021ZM98.1668 132.093L97.7869 131.146C97.5058 130.445 97.0813 129.977 96.5135 129.742C95.9426 129.508 95.3083 129.531 94.6104 129.811C93.8973 130.097 93.422 130.521 93.1844 131.083C92.9449 131.649 92.964 132.277 93.2415 132.969L93.6214 133.917C93.9025 134.617 94.3276 135.078 94.8966 135.299C95.4602 135.532 96.0895 135.51 96.7844 135.231C97.4974 134.945 97.9748 134.522 98.2167 133.962C98.4585 133.402 98.4419 132.779 98.1668 132.093Z" fill="white"/>
<path d="M84.436 132.27L85.3833 132.013L86.4503 133.505L89.6833 132.629L89.8511 130.803L90.7701 130.554L90.0235 138.309L89.0197 138.581L84.436 132.27ZM89.4953 134.754L89.6113 133.428L86.9156 134.158L87.6902 135.243L89.2509 137.567L89.298 137.555L89.4953 134.754Z" fill="white"/>
<path d="M80.4682 132.919L83.3842 132.478L84.475 139.686L81.559 140.127C80.5065 140.286 79.6936 140.103 79.1202 139.578C78.5468 139.052 78.1686 138.184 77.9854 136.974C77.8018 135.761 77.9066 134.821 78.2997 134.156C78.6929 133.491 79.4157 133.078 80.4682 132.919ZM83.4528 139.001L82.6104 133.434L80.6021 133.738C79.8843 133.847 79.3844 134.1 79.1023 134.499C78.8174 134.901 78.7324 135.481 78.8474 136.241L79.0264 137.424C79.1423 138.19 79.3971 138.721 79.7909 139.017C80.1852 139.316 80.7363 139.412 81.4444 139.305L83.4528 139.001Z" fill="white"/>
<path d="M75.2396 140.787L74.8179 133.51L75.7246 133.457L76.1463 140.735L75.2396 140.787Z" fill="white"/>
<path d="M70.8616 133.667L71.769 133.706L71.4596 140.989L70.3327 140.941L66.7252 134.63L66.6764 134.628L66.6509 136.841L66.4836 140.778L65.586 140.74L65.8954 133.456L67.0223 133.504L70.62 139.815L70.6591 139.817L70.6907 137.692L70.8616 133.667Z" fill="white"/>
<path d="M63.1 136.845C62.8822 138.036 62.4052 138.899 61.6689 139.433C60.9347 139.974 60.0616 140.152 59.0498 139.967C58.2748 139.825 57.6412 139.499 57.1487 138.989C56.6674 138.49 56.4226 137.901 56.4146 137.221L57.3464 137.392C57.3631 137.825 57.5389 138.203 57.8737 138.525C58.2085 138.848 58.6433 139.058 59.1781 139.156C59.9018 139.288 60.5289 139.18 61.0594 138.83C61.5899 138.48 61.9199 137.951 62.0493 137.244L62.2547 136.12C62.3783 135.444 62.266 134.854 61.918 134.351C61.5604 133.845 61.0357 133.529 60.3441 133.403C59.662 133.278 59.0691 133.39 58.5654 133.738C58.0578 134.088 57.734 134.62 57.5938 135.332L60.1491 135.799L60.0086 136.568L56.4399 135.915L57.1345 132.116L57.8694 132.251L57.7323 133.516L57.7995 133.528C58.1333 133.133 58.5419 132.862 59.0254 132.715C59.5088 132.568 60.0371 132.548 60.6103 132.652C61.5934 132.832 62.306 133.297 62.7481 134.046C63.1876 134.791 63.3049 135.724 63.1 136.845Z" fill="white"/>
<path d="M48.498 132.628C48.3551 132.988 48.1231 133.238 47.8019 133.376C47.4807 133.515 47.1446 133.515 46.7936 133.376C46.4487 133.239 46.205 133.005 46.0627 132.676C45.9173 132.345 45.9148 132.003 46.0553 131.649C46.1957 131.295 46.4332 131.049 46.7677 130.912C47.0973 130.77 47.4301 130.765 47.766 130.898C48.12 131.039 48.3672 131.272 48.5078 131.597C48.6453 131.921 48.642 132.265 48.498 132.628Z" fill="white"/>
<path d="M36.0979 122.967L39.794 125.262L35.9486 131.455L35.177 130.976L38.5846 125.488L35.6601 123.672L36.0979 122.967Z" fill="white"/>
<path d="M34.2042 122.722C34.2655 123.608 33.9342 124.515 33.2101 125.445C32.48 126.382 31.6796 126.922 30.809 127.065C29.9324 127.216 29.0691 126.96 28.2191 126.298C27.3716 125.638 26.9136 124.865 26.8451 123.978C26.7706 123.099 27.0985 122.191 27.8286 121.253C28.5547 120.321 29.356 119.78 30.2326 119.629C31.1 119.479 31.9601 119.737 32.8127 120.401C33.6653 121.065 34.1292 121.839 34.2042 122.722ZM32.1301 125.266L32.7572 124.461C33.2213 123.865 33.412 123.263 33.3293 122.654C33.2441 122.043 32.9049 121.506 32.3116 121.044C31.7056 120.572 31.1 120.375 30.495 120.452C29.8854 120.53 29.3515 120.863 28.8935 121.451L28.2664 122.257C27.8023 122.852 27.6182 123.452 27.714 124.054C27.7961 124.659 28.1325 125.191 28.7231 125.651C29.3292 126.123 29.9351 126.323 30.5407 126.25C31.1463 126.177 31.6761 125.849 32.1301 125.266Z" fill="white"/>
<path d="M25.073 113.524L25.7745 114.21L25.0297 115.886L27.4239 118.229L29.0831 117.448L29.7637 118.114L22.7004 121.402L21.9571 120.674L25.073 113.524ZM25.4968 119.144L26.6991 118.572L24.7028 116.618L24.1601 117.836L22.9481 120.36L22.983 120.394L25.4968 119.144Z" fill="white"/>
<path d="M22.488 110.4L24.3423 112.693L18.6735 117.277L16.8192 114.984C16.1499 114.156 15.8972 113.362 16.061 112.602C16.2248 111.841 16.7826 111.076 17.7343 110.307C18.6886 109.535 19.5521 109.151 20.3249 109.154C21.0977 109.157 21.8187 109.572 22.488 110.4ZM18.748 116.049L23.1258 112.509L21.8486 110.93C21.3922 110.365 20.9209 110.062 20.4346 110.02C19.9438 109.977 19.3997 110.197 18.8024 110.68L17.8721 111.432C17.2697 111.919 16.9402 112.408 16.8838 112.897C16.8249 113.388 17.0205 113.913 17.4708 114.469L18.748 116.049Z" fill="white"/>
<path d="M13.0598 109.877L19.1228 105.829L19.6271 106.585L13.564 110.632L13.0598 109.877Z" fill="white"/>
<path d="M17.1153 102.723L17.5422 103.525L11.1076 106.951L10.5775 105.956L14.1879 99.6463L14.165 99.6032L12.2447 100.703L8.76669 102.555L8.34441 101.762L14.779 98.3358L15.3091 99.3313L11.6941 105.632L11.7125 105.667L13.5597 104.617L17.1153 102.723Z" fill="white"/>
<path d="M10.4493 97.6693C9.31234 98.0862 8.32706 98.1129 7.49341 97.7494C6.65478 97.3912 6.05839 96.7292 5.70427 95.7635C5.43307 95.0239 5.39236 94.3124 5.58214 93.6291C5.76724 92.9615 6.15064 92.4516 6.73234 92.0996L7.05845 92.989C6.69364 93.2233 6.45719 93.5666 6.34911 94.0188C6.24103 94.471 6.28056 94.9523 6.46771 95.4627C6.72098 96.1534 7.13292 96.6386 7.70352 96.9182C8.27412 97.1979 8.89714 97.2139 9.57256 96.9662L10.6453 96.5729C11.2902 96.3364 11.7413 95.9404 11.9987 95.3849C12.2528 94.8202 12.2588 94.2078 12.0167 93.5476C11.778 92.8966 11.3809 92.4424 10.8254 92.185C10.2657 91.9256 9.6434 91.9163 8.9585 92.1571L9.85279 94.5959L9.11929 94.8649L7.87032 91.4587L11.4965 90.1291L11.7537 90.8305L10.5937 91.3546L10.6173 91.4188C11.1276 91.5056 11.5685 91.7201 11.9402 92.0623C12.3118 92.4045 12.5979 92.8491 12.7985 93.3962C13.1426 94.3344 13.104 95.1842 12.6827 95.9454C12.2634 96.7024 11.5189 97.277 10.4493 97.6693Z" fill="white"/>
<path d="M6.65769 82.8762C6.27468 82.9342 5.94237 82.8594 5.66074 82.6518C5.37911 82.4442 5.21005 82.1537 5.15355 81.7804C5.09803 81.4134 5.17679 81.0855 5.38985 80.7964C5.60242 80.5042 5.897 80.3295 6.27357 80.2726C6.65014 80.2156 6.98182 80.2971 7.26862 80.5171C7.55765 80.7301 7.7292 81.0153 7.78327 81.3725C7.84025 81.7491 7.76358 82.0801 7.55326 82.3654C7.34244 82.6475 7.04392 82.8178 6.65769 82.8762Z" fill="white"/>
<path d="M8.71491 67.0852L8.59738 71.4342L1.31 71.2373L1.33454 70.3294L7.79214 70.5039L7.88514 67.0628L8.71491 67.0852Z" fill="white"/>
<path d="M7.94395 65.4743C7.21141 65.9753 6.261 66.1489 5.09271 65.995C3.91474 65.8398 3.04376 65.4229 2.47976 64.7445C1.90608 64.0648 1.68961 63.1908 1.83036 62.1226C1.97068 61.0575 2.40592 60.2711 3.13607 59.7631C3.85655 59.2539 4.80577 59.0769 5.98374 59.2321C7.15526 59.3865 8.02786 59.8035 8.60153 60.4832C9.16961 61.1556 9.38306 62.0276 9.24189 63.0991C9.10072 64.1705 8.66807 64.9623 7.94395 65.4743ZM4.70038 64.973L5.71214 65.1064C6.46088 65.205 7.07695 65.0645 7.56036 64.685C8.0442 64.3022 8.33523 63.738 8.43345 62.9925C8.5338 62.2309 8.39742 61.6088 8.02432 61.1262C7.64841 60.64 7.09093 60.3482 6.35187 60.2509L5.34011 60.1176C4.59137 60.0189 3.98133 60.1634 3.50998 60.5512C3.03022 60.9279 2.74144 61.4874 2.64364 62.2297C2.54329 62.9914 2.67784 63.6149 3.0473 64.1002C3.41675 64.5856 3.96778 64.8765 4.70038 64.973Z" fill="white"/>
<path d="M11.2406 52.9701L11.0019 53.922L9.17924 54.1245L8.36465 57.3735L9.87625 58.412L9.6447 59.3355L3.24204 54.8962L3.49497 53.8874L11.2406 52.9701ZM6.60211 56.1715L7.70296 56.9207L8.38218 54.2116L7.0569 54.3576L4.26664 54.5842L4.25476 54.6316L6.60211 56.1715Z" fill="white"/>
<path d="M12.641 49.0878L11.5946 51.8451L4.77887 49.2585L5.8253 46.5012C6.20298 45.506 6.76149 44.8875 7.50082 44.6459C8.24014 44.4042 9.18196 44.5005 10.3263 44.9348C11.4737 45.3702 12.2407 45.9224 12.6274 46.5915C13.0142 47.2605 13.0187 48.0926 12.641 49.0878ZM5.87718 48.7039L11.1408 50.7015L11.8615 48.8024C12.119 48.1237 12.1435 47.5638 11.935 47.1225C11.7245 46.677 11.2602 46.318 10.5419 46.0454L9.42347 45.621C8.69914 45.3461 8.11142 45.3076 7.6603 45.5054C7.20614 45.7021 6.852 46.1353 6.5979 46.8048L5.87718 48.7039Z" fill="white"/>
<path d="M8.38305 40.5844L14.9283 43.7945L14.5283 44.6099L7.98313 41.3998L8.38305 40.5844Z" fill="white"/>
<path d="M16.61 40.4803L16.1309 41.2519L9.93758 37.4064L10.5326 36.4482L17.8018 36.404L17.8276 36.3625L15.9124 35.2538L12.5647 33.1752L13.0387 32.412L19.232 36.2574L18.637 37.2156L11.3729 37.2516L11.3523 37.2848L13.1877 38.3554L16.61 40.4803Z" fill="white"/>
<path d="M17.5182 32.3171C16.585 31.5455 16.0651 30.7081 15.9587 29.8049C15.8451 28.9001 16.1161 28.0513 16.7716 27.2585C17.2735 26.6514 17.8674 26.2575 18.5532 26.0769C19.2231 25.9001 19.8567 25.9741 20.454 26.299L19.8503 27.029C19.4641 26.8321 19.0484 26.801 18.6034 26.9357C18.1583 27.0704 17.7626 27.3472 17.4162 27.7662C16.9474 28.3331 16.7362 28.9335 16.7824 29.5673C16.8286 30.201 17.1289 30.7471 17.6833 31.2055L18.5639 31.9336C19.0933 32.3713 19.6627 32.5612 20.2723 32.5034C20.888 32.4381 21.4199 32.1345 21.868 31.5926C22.3098 31.0582 22.5018 30.4863 22.444 29.8767C22.3858 29.2626 22.08 28.7205 21.5268 28.2504L19.8716 30.2524L19.2695 29.7546L21.5812 26.9586L24.5579 29.4197L24.0818 29.9954L23.0443 29.258L23.0007 29.3107C23.1831 29.7951 23.2202 30.2841 23.112 30.7775C23.0039 31.271 22.7642 31.7423 22.3929 32.1914C21.7561 32.9616 21.0028 33.3567 20.1331 33.3767C19.2679 33.3963 18.3963 33.0431 17.5182 32.3171Z" fill="white"/>
<path d="M28.1931 21.6916C27.9484 21.3913 27.8439 21.0671 27.8794 20.7191C27.915 20.371 28.0792 20.0777 28.3719 19.8392C28.6596 19.6049 28.9821 19.5059 29.3393 19.5424C29.6991 19.5768 29.9992 19.7417 30.2397 20.037C30.4803 20.3323 30.5788 20.6593 30.5352 21.0181C30.4987 21.3753 30.3404 21.6681 30.0602 21.8963C29.7649 22.1368 29.441 22.2391 29.0883 22.203C28.7382 22.165 28.4398 21.9945 28.1931 21.6916Z" fill="white"/>
<path d="M42.6639 15.4918L38.8623 17.6072L35.3175 11.237L36.1111 10.7954L39.2523 16.4403L42.2603 14.7665L42.6639 15.4918Z" fill="white"/>
<path d="M43.8156 13.9134C43.0125 13.5356 42.3814 12.804 41.9224 11.7187C41.4596 10.6245 41.3778 9.66234 41.6771 8.8324C41.9726 7.99346 42.6165 7.36413 43.6089 6.9444C44.5982 6.52593 45.4968 6.50284 46.3046 6.87513C47.1086 7.23842 47.742 7.96721 48.2048 9.0615C48.6652 10.1498 48.7476 11.1134 48.4521 11.9523C48.16 12.7827 47.5163 13.4084 46.521 13.8294C45.5256 14.2504 44.6238 14.2784 43.8156 13.9134ZM42.6048 10.8628L43.0023 11.8027C43.2965 12.4983 43.7297 12.9583 44.3018 13.1829C44.8769 13.4062 45.5108 13.3714 46.2033 13.0784C46.9109 12.7792 47.3782 12.3465 47.6053 11.7803C47.8341 11.2099 47.8033 10.5815 47.5129 9.89492L47.1154 8.95503C46.8212 8.25947 46.3876 7.80669 45.8145 7.59666C45.2467 7.37384 44.618 7.40825 43.9284 7.69991C43.2209 7.99918 42.7514 8.43101 42.5201 8.9954C42.2887 9.5598 42.317 10.1823 42.6048 10.8628Z" fill="white"/>
<path d="M56.4418 10.3609L55.4995 10.6356L54.4045 9.16443L51.1887 10.1016L51.0555 11.9307L50.1414 12.1971L50.7409 4.42909L51.7393 4.13809L56.4418 10.3609ZM51.3364 7.97335L51.2455 9.30185L53.9269 8.52038L53.1318 7.4501L51.5274 5.15601L51.4805 5.16967L51.3364 7.97335Z" fill="white"/>
<path d="M60.2549 9.64425L57.3479 10.1413L56.1192 2.95554L59.0263 2.45849C60.0755 2.27909 60.8918 2.44665 61.4751 2.96116C62.0585 3.47568 62.4533 4.33616 62.6595 5.54261C62.8664 6.75227 62.7796 7.69344 62.3993 8.36613C62.0189 9.03881 61.3041 9.46485 60.2549 9.64425ZM57.1543 3.62068L58.1032 9.17003L60.1054 8.82769C60.8209 8.70535 61.3159 8.44238 61.5903 8.03879C61.8675 7.63144 61.9413 7.04915 61.8118 6.29191L61.6102 5.11273C61.4796 4.34908 61.2146 3.82306 60.8153 3.53468C60.4153 3.24309 59.8624 3.15765 59.1565 3.27834L57.1543 3.62068Z" fill="white"/>
<path d="M65.4106 1.64718L65.9724 8.91553L65.0669 8.98553L64.5051 1.71717L65.4106 1.64718Z" fill="white"/>
<path d="M69.739 8.66165L68.8311 8.64061L68.9999 1.35253L70.1275 1.37865L73.8561 7.61901L73.9049 7.62014L73.8878 5.40724L73.979 1.46786L74.8772 1.48867L74.7084 8.77675L73.5808 8.75063L69.862 2.5105L69.8229 2.5096L69.8323 4.63441L69.739 8.66165Z" fill="white"/>
<path d="M77.6772 5.32395C77.8722 4.12881 78.3326 3.25732 79.0585 2.70948C79.7823 2.15469 80.6518 1.96009 81.667 2.12569C82.4445 2.2525 83.0843 2.56629 83.5864 3.06707C84.0772 3.55611 84.3332 4.14041 84.3542 4.81999L83.4193 4.66749C83.3943 4.23464 83.2113 3.86013 82.8704 3.54396C82.5295 3.2278 82.0907 3.02596 81.5542 2.93844C80.8281 2.82001 80.2032 2.94071 79.6795 3.30055C79.1557 3.66038 78.836 4.19531 78.7201 4.90533L78.5362 6.033C78.4256 6.71089 78.5492 7.29833 78.9068 7.79533C79.274 8.29389 79.8046 8.59977 80.4985 8.71296C81.1829 8.82457 81.7735 8.70158 82.2705 8.34398C82.7712 7.98369 83.0848 7.44611 83.2113 6.73124L80.6476 6.31307L80.7733 5.54201L84.3539 6.12604L83.7322 9.93797L82.9949 9.8177L83.1077 8.54979L83.0402 8.53879C82.7141 8.94075 82.3107 9.21963 81.8302 9.37542C81.3496 9.53121 80.8218 9.5622 80.2467 9.4684C79.2604 9.30752 78.539 8.85674 78.0827 8.11606C77.629 7.37912 77.4938 6.44841 77.6772 5.32395Z" fill="white"/>
<path d="M92.5145 9.28237C92.6519 8.92021 92.8802 8.66737 93.1993 8.52385C93.5184 8.38033 93.8544 8.37556 94.2074 8.50954C94.5544 8.64121 94.8015 8.87078 94.9488 9.19826C95.0992 9.52689 95.1068 9.86925 94.9716 10.2253C94.8365 10.5814 94.6027 10.8304 94.2703 10.9724C93.9428 11.1197 93.6102 11.1292 93.2724 11.001C92.9163 10.8659 92.6655 10.6367 92.5201 10.3134C92.3778 9.99125 92.3759 9.64758 92.5145 9.28237Z" fill="white"/>
<path d="M104.899 18.6012L101.161 16.3746L104.892 10.1116L105.672 10.5764L102.366 16.1263L105.324 17.888L104.899 18.6012Z" fill="white"/>
<path d="M106.782 18.7675C106.704 17.8834 107.019 16.97 107.726 16.0272C108.439 15.0767 109.23 14.522 110.097 14.3632C110.971 14.1965 111.839 14.4364 112.701 15.0829C113.56 15.7274 114.032 16.4924 114.117 17.3778C114.207 18.2554 113.896 19.1695 113.183 20.12C112.474 21.0653 111.683 21.6213 110.809 21.788C109.945 21.9533 109.08 21.7118 108.216 21.0634C107.351 20.4149 106.873 19.6496 106.782 18.7675ZM108.809 16.1864L108.197 17.0028C107.744 17.607 107.564 18.2128 107.658 18.8202C107.754 19.4296 108.103 19.9599 108.705 20.411C109.319 20.872 109.928 21.0582 110.532 20.9696C111.14 20.8804 111.668 20.5376 112.115 19.9413L112.727 19.1249C113.18 18.5207 113.354 17.9182 113.247 17.3172C113.154 16.7144 112.808 16.1883 112.209 15.7391C111.594 15.2782 110.985 15.0897 110.381 15.1737C109.776 15.2577 109.253 15.5953 108.809 16.1864Z" fill="white"/>
<path d="M116.325 28.0014L115.613 27.3253L116.334 25.6388L113.906 23.3312L112.258 24.1364L111.568 23.4805L118.583 20.09L119.337 20.8065L116.325 28.0014ZM115.819 22.388L114.626 22.9779L116.65 24.902L117.175 23.6764L118.35 21.1356L118.315 21.1019L115.819 22.388Z" fill="white"/>
<path d="M118.871 30.952L116.975 28.6928L122.559 24.0067L124.455 26.2659C125.139 27.0813 125.406 27.8707 125.257 28.6339C125.107 29.3971 124.563 30.1721 123.625 30.9589C122.685 31.7478 121.829 32.1477 121.056 32.1586C120.283 32.1696 119.555 31.7674 118.871 30.952ZM122.507 25.236L118.195 28.8549L119.5 30.4109C119.967 30.967 120.444 31.2617 120.931 31.2951C121.422 31.3288 121.962 31.0988 122.551 30.605L123.467 29.836C124.06 29.338 124.381 28.8438 124.428 28.3535C124.478 27.8611 124.273 27.3406 123.813 26.792L122.507 25.236Z" fill="white"/>
<path d="M128.318 31.3003L122.331 35.4583L121.813 34.7124L127.8 30.5543L128.318 31.3003Z" fill="white"/>
<path d="M124.409 38.5292L123.967 37.7356L130.337 34.1908L130.886 35.1764L127.392 41.5515L127.416 41.5941L129.316 40.4589L132.759 38.5429L133.196 39.328L126.826 42.8727L126.277 41.8871L129.775 35.5206L129.756 35.4864L127.929 36.5704L124.409 38.5292Z" fill="white"/>
<path d="M131.176 43.4456C132.305 43.0074 133.289 42.9622 134.13 43.31C134.975 43.6524 135.584 44.3031 135.956 45.262C136.241 45.9964 136.295 46.707 136.118 47.3937C135.945 48.0647 135.572 48.5817 134.997 48.9445L134.654 48.0614C135.014 47.8203 135.244 47.4726 135.344 47.0185C135.443 46.5643 135.395 46.0838 135.198 45.577C134.932 44.8912 134.511 44.4138 133.935 44.145C133.36 43.8761 132.736 43.8718 132.066 44.1321L131 44.5455C130.36 44.794 129.917 45.1984 129.67 45.7586C129.426 46.328 129.432 46.9404 129.686 47.5959C129.937 48.2423 130.342 48.689 130.903 48.9359C131.467 49.1847 132.09 49.1824 132.77 48.9288L131.83 46.5072L132.558 46.2245L133.871 49.6066L130.27 51.0041L130 50.3076L131.15 49.7618L131.125 49.6981C130.613 49.6209 130.168 49.4147 129.79 49.0795C129.412 48.7444 129.118 48.3052 128.907 47.762C128.546 46.8303 128.568 45.98 128.975 45.2111C129.38 44.4463 130.114 43.8578 131.176 43.4456Z" fill="white"/>
<path d="M135.27 58.2036C135.651 58.1383 135.985 58.2067 136.271 58.4089C136.556 58.6111 136.731 58.8982 136.794 59.2704C136.857 59.6362 136.785 59.9657 136.577 60.2587C136.37 60.555 136.079 60.7352 135.704 60.7994C135.328 60.8636 134.995 60.7885 134.704 60.574C134.411 60.3665 134.234 60.0847 134.173 59.7286C134.109 59.3532 134.179 59.0208 134.384 58.7315C134.589 58.4454 134.885 58.2694 135.27 58.2036Z" fill="white"/>
</svg>
