<?xml version="1.0" encoding="utf-8"?>
<!-- Generator: Adobe Illustrator 27.0.0, SVG Export Plug-In . SVG Version: 6.00 Build 0)  -->
<svg version="1.1" id="Layer_1" xmlns="http://www.w3.org/2000/svg" xmlns:xlink="http://www.w3.org/1999/xlink" x="0px" y="0px"
	 viewBox="0 0 105.1 20" style="enable-background:new 0 0 105.1 20;" xml:space="preserve">
<style type="text/css">
	.st0{fill-rule:evenodd;clip-rule:evenodd;fill:#FFFFFF;}
	.st1{clip-path:url(#SVGID_00000075134870843788463760000003211230275899857838_);}
	.st2{fill:#FFFFFF;}
</style>
<path class="st0" d="M0.7,0.1v19.6h19.6L0.7,0.1z M20.3,17.6V0.1h0l-8.7,8.7L20.3,17.6z"/>
<g>
	<defs>
		<rect id="SVGID_1_" x="84.8" y="0.4" width="19.4" height="19.4"/>
	</defs>
	<clipPath id="SVGID_00000008828177310022469310000011316470319072042893_">
		<use xlink:href="#SVGID_1_"  style="overflow:visible;"/>
	</clipPath>
	<g style="clip-path:url(#SVGID_00000008828177310022469310000011316470319072042893_);">
		<path class="st0" d="M89.4,0.4l8.4,8.4V0.4h0h1.6h4.9v14.8l2.9,2.9l-4.6,4.6l-0.8-0.8l0,0L82.5,2.6l0,0l-1.1-1.1L86-3L89.4,0.4
			L89.4,0.4z M84.8,19.7V7l12.7,12.7H84.8z"/>
	</g>
</g>
<path class="st2" d="M33.1,0.5l11.1,19.2H22L33.1,0.5z"/>
<circle class="st2" cx="72.6" cy="10.1" r="9.6"/>
<path class="st0" d="M45.9,17.5C45.9,17.5,45.9,17.5,45.9,17.5c3.5,3.5,9,3.5,12.5,0c3.5-3.5,3.5-9,0-12.5c0,0,0,0,0,0L45.9,17.5z"
	/>
<path class="st0" d="M58.6,2.6C58.6,2.6,58.6,2.6,58.6,2.6c-3.5-3.5-9-3.5-12.5,0c-3.5,3.5-3.5,9,0,12.5c0,0,0,0,0,0L58.6,2.6z"/>
</svg>
