<svg width="144" height="144" viewBox="0 0 144 144" fill="none" xmlns="http://www.w3.org/2000/svg">
<path d="M135.073 55.7811L135.305 56.9927C134.641 57.1246 134.171 57.447 133.896 57.9597C133.626 58.4758 133.565 59.1167 133.712 59.8826C133.847 60.5856 134.109 61.1125 134.497 61.4631C134.887 61.818 135.351 61.9436 135.891 61.8399C136.456 61.7314 136.806 61.4537 136.942 61.0068C137.043 60.7008 137.102 60.3837 137.117 60.0554L137.178 58.3384L137.2 57.7092C137.208 57.6123 137.251 57.3762 137.331 57.0007C137.428 56.6696 137.531 56.4155 137.64 56.2384C137.781 56.0247 137.982 55.8256 138.241 55.6412C138.501 55.4569 138.798 55.3325 139.133 55.2682C139.937 55.1139 140.629 55.2935 141.209 55.8069C141.784 56.317 142.167 57.0658 142.356 58.0534C142.551 59.0662 142.468 59.926 142.109 60.6327C141.747 61.3445 141.142 61.7883 140.295 61.964L140.066 60.7713C140.621 60.6343 141.014 60.3419 141.245 59.894C141.48 59.4453 141.534 58.8925 141.408 58.2355C141.286 57.5994 141.05 57.1241 140.698 56.8097C140.351 56.4944 139.946 56.3814 139.481 56.4706C138.979 56.5671 138.654 56.842 138.507 57.2955C138.412 57.635 138.36 58.0094 138.352 58.4188L138.301 60.2575C138.266 61.8611 137.579 62.7914 136.24 63.0486C135.357 63.2181 134.604 63.0264 133.982 62.4734C133.374 61.9305 132.966 61.115 132.757 60.0269C132.529 58.8384 132.637 57.876 133.081 57.1398C133.538 56.4012 134.202 55.9483 135.073 55.7811Z" fill="white"/>
<path d="M133.922 69.7031C133.877 68.3402 134.271 67.2636 135.102 66.4733C135.938 65.6829 137.126 65.2625 138.668 65.2123C140.214 65.1619 141.43 65.5103 142.316 66.2574C143.205 67.0044 143.673 68.0806 143.719 69.4861C143.757 70.6531 143.488 71.6148 142.911 72.3712C142.335 73.1404 141.542 73.599 140.532 73.747L140.492 72.514C141.178 72.3595 141.712 72.018 142.096 71.4896C142.48 70.9655 142.658 70.3009 142.632 69.496C142.601 68.5334 142.297 67.7758 141.72 67.2233C141.148 66.6749 140.389 66.4161 139.444 66.4469L137.898 66.4973C137.016 66.526 136.304 66.837 135.76 67.4303C135.217 68.0236 134.96 68.7824 134.99 69.7066C135.015 70.469 135.238 71.1098 135.66 71.629C136.087 72.1523 136.647 72.4815 137.342 72.6166L137.383 73.8497C136.346 73.7086 135.52 73.2729 134.903 72.5426C134.286 71.7953 133.959 70.8488 133.922 69.7031Z" fill="white"/>
<path d="M133.923 77.705L134.085 76.5272L143.539 77.8318L142.914 82.3592C142.789 83.2626 142.45 83.9127 141.896 84.3094C141.347 84.7068 140.623 84.8434 139.723 84.7193C139.175 84.6436 138.717 84.4557 138.349 84.1555C137.982 83.8553 137.749 83.4855 137.651 83.046L137.575 83.0355L137.505 83.5421C137.461 83.8629 137.351 84.078 137.177 84.1873C137.002 84.3008 136.754 84.3354 136.434 84.2912L133.078 83.8281L133.24 82.6503L136.881 83.1527L137.564 78.2074L133.923 77.705ZM142.325 78.8645L138.589 78.349L138.158 81.477C138.083 82.0173 138.156 82.4575 138.375 82.7976C138.599 83.1382 138.933 83.3391 139.376 83.4003L140.219 83.5165C140.687 83.5812 141.065 83.4784 141.352 83.2083C141.638 82.9423 141.818 82.5371 141.894 81.9925L142.325 78.8645Z" fill="white"/>
<path d="M133.469 87.4853C134.526 87.0038 135.791 86.9937 137.263 87.455C138.747 87.92 139.777 88.6535 140.351 89.6552C140.938 90.6608 141.021 91.8366 140.599 93.1826C140.179 94.5245 139.44 95.4409 138.385 95.9318C137.341 96.4264 136.077 96.4412 134.593 95.9762C133.117 95.5136 132.085 94.7796 131.498 93.774C130.917 92.7791 130.838 91.6066 131.261 90.2565C131.684 88.9065 132.42 87.9827 133.469 87.4853ZM137.539 88.8611L136.264 88.4617C135.321 88.1661 134.495 88.2086 133.786 88.5894C133.076 88.9743 132.574 89.6364 132.279 90.5757C131.979 91.5354 132.014 92.3683 132.387 93.0746C132.763 93.7861 133.416 94.2878 134.347 94.5796L135.622 94.979C136.565 95.2746 137.385 95.2254 138.08 94.8314C138.783 94.4534 139.281 93.7968 139.574 92.8615C139.875 91.9019 139.842 91.0675 139.474 90.3585C139.107 89.6495 138.462 89.1503 137.539 88.8611Z" fill="white"/>
<path d="M126.658 101.705L129.153 96.5853L137.732 100.765L137.211 101.834L129.609 98.13L127.635 102.181L126.658 101.705Z" fill="white"/>
<path d="M122.261 108.689L125.402 103.938L133.362 109.201L132.707 110.193L125.652 105.529L123.167 109.288L122.261 108.689Z" fill="white"/>
<path d="M115.33 116.606L118.1 113.917L124.749 120.762L121.979 123.452C120.98 124.423 119.975 124.847 118.964 124.724C117.953 124.6 116.89 123.964 115.773 122.815C114.654 121.662 114.05 120.582 113.963 119.574C113.875 118.567 114.331 117.577 115.33 116.606ZM123.139 120.811L118.004 115.524L116.097 117.377C115.415 118.039 115.075 118.69 115.078 119.328C115.081 119.973 115.433 120.657 116.133 121.378L117.224 122.501C117.931 123.229 118.607 123.6 119.251 123.616C119.899 123.634 120.559 123.317 121.231 122.664L123.139 120.811Z" fill="white"/>
<path d="M110.836 122.174C111.966 122.447 112.968 123.218 113.843 124.488C114.725 125.769 115.084 126.981 114.92 128.124C114.762 129.278 114.103 130.255 112.941 131.055C111.783 131.853 110.637 132.12 109.503 131.856C108.376 131.602 107.372 130.835 106.489 129.554C105.612 128.28 105.252 127.066 105.409 125.913C105.564 124.771 106.224 123.799 107.39 122.996C108.555 122.193 109.704 121.919 110.836 122.174ZM113.194 125.766L112.436 124.666C111.875 123.852 111.199 123.376 110.406 123.239C109.609 123.105 108.806 123.317 107.995 123.875C107.167 124.446 106.682 125.124 106.54 125.91C106.397 126.701 106.603 127.499 107.156 128.303L107.914 129.403C108.475 130.217 109.151 130.683 109.941 130.801C110.728 130.937 111.525 130.727 112.332 130.171C113.16 129.6 113.648 128.923 113.796 128.138C113.943 127.353 113.743 126.563 113.194 125.766Z" fill="white"/>
<path d="M101.287 127.049L106.923 134.99L105.778 135.497L102.459 130.752L101.029 128.596L100.947 128.633L102.259 137.056L100.787 137.708L95.4181 131.082L95.3421 131.116L95.9784 133.609L97.2801 139.262L96.1171 139.777L94.0341 130.262L95.5419 129.594L100.968 136.209L101.027 136.183L99.7672 127.722L101.287 127.049Z" fill="white"/>
<path d="M89.0792 131.856L90.2362 131.583L92.4317 140.87L90.9948 141.21L84.209 134.538L84.1468 134.553L84.9 137.35L86.0867 142.37L84.9421 142.641L82.7466 133.353L84.1836 133.013L90.957 139.688L91.0067 139.676L90.2924 136.988L89.0792 131.856Z" fill="white"/>
<path d="M72.1096 138.137C72.0915 138.644 71.9148 139.053 71.5796 139.365C71.2444 139.678 70.8298 139.825 70.3358 139.807C69.8503 139.79 69.4474 139.609 69.1271 139.265C68.8025 138.921 68.6491 138.5 68.6669 138.001C68.6847 137.503 68.8698 137.096 69.2222 136.78C69.5663 136.46 69.9746 136.308 70.4473 136.325C70.9456 136.343 71.3528 136.522 71.669 136.861C71.981 137.201 72.1278 137.626 72.1096 138.137Z" fill="white"/>
<path d="M57.338 135.562L56.1567 135.206C56.3481 134.556 56.2804 133.991 55.9536 133.509C55.6215 133.031 55.0822 132.679 54.3355 132.454C53.65 132.248 53.0619 132.235 52.571 132.417C52.0761 132.597 51.7494 132.95 51.5908 133.477C51.4248 134.028 51.5084 134.467 51.8415 134.794C52.0653 135.026 52.3192 135.225 52.603 135.391L54.0959 136.241L54.6429 136.553C54.7253 136.604 54.9143 136.752 55.2099 136.997C55.4582 137.237 55.6355 137.446 55.7419 137.625C55.8657 137.849 55.949 138.119 55.9919 138.434C56.0348 138.75 56.0071 139.071 55.9088 139.397C55.6727 140.181 55.1927 140.71 54.4687 140.986C53.75 141.259 52.9092 141.251 51.9463 140.961C50.9589 140.663 50.2354 140.191 49.7757 139.546C49.3132 138.894 49.2006 138.153 49.4379 137.321L50.6008 137.671C50.4646 138.227 50.5414 138.71 50.8311 139.123C51.1196 139.539 51.5841 139.843 52.2247 140.036C52.8449 140.223 53.3757 140.234 53.8171 140.069C54.2573 139.908 54.5457 139.601 54.6821 139.148C54.8296 138.658 54.7366 138.243 54.4032 137.902C54.1467 137.66 53.839 137.441 53.4801 137.244L51.8746 136.346C50.4702 135.571 49.9647 134.531 50.358 133.225C50.6174 132.365 51.1365 131.787 51.9152 131.492C52.678 131.205 53.5898 131.222 54.6506 131.541C55.8094 131.89 56.6118 132.433 57.0579 133.168C57.5003 133.915 57.5937 134.713 57.338 135.562Z" fill="white"/>
<path d="M45.4779 128.029C46.7038 128.626 47.4721 129.477 47.7827 130.581C48.0914 131.689 47.908 132.936 47.2324 134.323C46.5549 135.714 45.6791 136.626 44.6048 137.06C43.5287 137.498 42.3586 137.409 41.0944 136.793C40.0447 136.282 39.3201 135.595 38.9205 134.732C38.5094 133.863 38.4742 132.948 38.8149 131.986L39.924 132.526C39.7404 133.204 39.7927 133.836 40.0808 134.422C40.3651 135.006 40.8692 135.475 41.5933 135.828C42.4591 136.249 43.2709 136.334 44.0287 136.083C44.7808 135.833 45.3641 135.283 45.7784 134.432L46.4559 133.042C46.8422 132.249 46.8999 131.473 46.6291 130.716C46.3583 129.958 45.8072 129.377 44.9759 128.972C44.2902 128.638 43.6192 128.536 42.963 128.667C42.3012 128.799 41.7482 129.141 41.3041 129.693L40.1951 129.153C40.8038 128.302 41.575 127.775 42.5086 127.571C43.4576 127.374 44.4474 127.527 45.4779 128.029Z" fill="white"/>
<path d="M38.5042 124.363L39.474 125.05L33.953 132.835L30.2251 130.191C29.4813 129.663 29.0612 129.062 28.9648 128.388C28.866 127.717 29.0791 127.011 29.6042 126.271C29.9247 125.819 30.3028 125.499 30.7386 125.312C31.1744 125.125 31.61 125.089 32.0453 125.205L32.0897 125.142L31.6726 124.846C31.4084 124.659 31.2681 124.463 31.2515 124.258C31.2315 124.05 31.3152 123.814 31.5026 123.55L33.4625 120.787L34.4322 121.475L32.3059 124.472L36.3779 127.361L38.5042 124.363ZM33.5971 131.281L35.7789 128.205L33.2032 126.378C32.7583 126.063 32.3343 125.924 31.9312 125.962C31.5256 126.004 31.1934 126.207 30.9346 126.572L30.4427 127.265C30.1691 127.651 30.0859 128.033 30.1932 128.413C30.297 128.789 30.5731 129.137 31.0215 129.455L33.5971 131.281Z" fill="white"/>
<path d="M29.9967 119.402C29.9336 120.562 29.3567 121.688 28.2661 122.779C27.1664 123.879 26.0395 124.452 24.8855 124.497C23.7224 124.551 22.6421 124.08 21.6445 123.083C20.65 122.088 20.1798 121.01 20.2338 119.847C20.2789 118.693 20.8512 117.566 21.9509 116.466C23.0445 115.372 24.1729 114.797 25.336 114.743C26.487 114.689 27.5628 115.161 28.5634 116.162C29.5639 117.162 30.0417 118.242 29.9967 119.402ZM26.892 122.372L27.8365 121.427C28.5355 120.728 28.8804 119.976 28.8712 119.172C28.859 118.364 28.5048 117.613 27.8087 116.917C27.0974 116.206 26.3426 115.852 25.5441 115.855C24.7395 115.858 23.9923 116.205 23.3024 116.895L22.3579 117.84C21.6589 118.539 21.323 119.288 21.3503 120.086C21.3594 120.885 21.7106 121.63 22.4038 122.323C23.115 123.034 23.8699 123.391 24.6684 123.394C25.4669 123.397 26.2081 123.056 26.892 122.372Z" fill="white"/>
<path d="M20.6042 106.858L23.9916 111.436L16.3198 117.112L15.6126 116.157L22.4109 111.127L19.7307 107.504L20.6042 106.858Z" fill="white"/>
<path d="M16.4349 99.6615L19.1707 104.657L10.8005 109.241L10.2294 108.198L17.6465 104.136L15.4818 100.183L16.4349 99.6615Z" fill="white"/>
<path d="M12.6872 89.9511L13.7771 93.6549L4.62185 96.3488L3.53201 92.645C3.13866 91.3082 3.23195 90.2214 3.81189 89.3844C4.39184 88.5475 5.45036 87.9028 6.98747 87.4505C8.52867 86.997 9.76559 86.9662 10.6982 87.3581C11.6309 87.75 12.2939 88.6143 12.6872 89.9511ZM5.32869 94.9015L12.399 92.8211L11.6484 90.2701C11.3801 89.3585 10.9627 88.755 10.3961 88.4598C9.82417 88.1617 9.05583 88.1545 8.09105 88.4384L6.58869 88.8805C5.61573 89.1668 4.97225 89.5916 4.65825 90.1548C4.34016 90.7193 4.31343 91.4512 4.57807 92.3506L5.32869 94.9015Z" fill="white"/>
<path d="M9.77572 83.1284C9.00682 83.9994 7.85631 84.5246 6.32418 84.7042C4.77935 84.8852 3.54018 84.6357 2.60667 83.9557C1.66046 83.2771 1.10526 82.2374 0.941077 80.8364C0.777391 79.4398 1.07739 78.3019 1.84106 77.423C2.59204 76.5455 3.73994 76.0162 5.28477 75.8352C6.82113 75.6551 8.06242 75.9044 9.00863 76.583C9.94538 77.2541 10.4961 78.2922 10.6608 79.6973C10.8255 81.1025 10.5304 82.2462 9.77572 83.1284ZM5.4983 83.5331L6.82516 83.3776C7.80708 83.2625 8.54389 82.8866 9.03561 82.2497C9.52682 81.6087 9.71514 80.7993 9.60056 79.8216C9.4835 78.8227 9.11078 78.077 8.4824 77.5843C7.84928 77.0878 7.04812 76.8964 6.0789 77.01L4.75204 77.1655C3.77013 77.2806 3.04227 77.6598 2.56848 78.3031C2.0805 78.9352 1.89356 79.738 2.00764 80.7114C2.1247 81.7103 2.49556 82.4584 3.1202 82.9559C3.74485 83.4533 4.53755 83.6457 5.4983 83.5331Z" fill="white"/>
<path d="M9.90161 72.5898L0.251483 73.8942L0.333958 72.644L6.07738 71.9083L8.65089 71.6425L8.65678 71.5532L0.587275 68.8044L0.693314 67.1971L9.05485 65.5195L9.06032 65.4365L6.55637 64.8421L0.945789 63.3702L1.02953 62.1009L10.4238 64.6745L10.3152 66.3201L1.93717 68.0543L1.93296 68.118L10.011 70.9315L9.90161 72.5898Z" fill="white"/>
<path d="M11.2705 59.6492L10.9739 60.8005L1.7323 58.4196L2.10068 56.9897L11.1646 54.0905L11.1805 54.0286L8.35419 53.3928L3.35892 52.1059L3.65235 50.9669L12.8939 53.3479L12.5255 54.7777L3.46479 57.6646L3.45204 57.7141L6.16379 58.3335L11.2705 59.6492Z" fill="white"/>
<path d="M13.6183 41.6291C13.1779 41.3777 12.8974 41.0311 12.7767 40.5893C12.656 40.1474 12.7182 39.7119 12.9633 39.2826C13.2041 38.8607 13.5513 38.5878 14.0047 38.464C14.4603 38.3364 14.9046 38.3962 15.3376 38.6434C15.7706 38.8906 16.045 39.2436 16.1609 39.7023C16.2848 40.1558 16.2295 40.5879 15.995 40.9987C15.7478 41.4317 15.4004 41.7093 14.9527 41.8316C14.5072 41.9501 14.0624 41.8827 13.6183 41.6291Z" fill="white"/>
<path d="M22.5866 29.8721L23.4491 28.99C23.9366 29.4607 24.4692 29.6627 25.047 29.5959C25.6248 29.5232 26.1863 29.208 26.7315 28.6504C27.232 28.1386 27.5155 27.6231 27.582 27.1041C27.6515 26.582 27.4897 26.1287 27.0967 25.7444C26.6854 25.3422 26.2575 25.2129 25.8132 25.3565C25.5038 25.4473 25.21 25.5802 24.9317 25.7551L23.4866 26.6844L22.957 27.0248C22.8732 27.0739 22.6543 27.1728 22.3004 27.3214C21.9732 27.4306 21.7057 27.4908 21.4979 27.5022C21.2418 27.5081 20.964 27.4569 20.6644 27.3488C20.3649 27.2406 20.0932 27.0674 19.8495 26.8291C19.2645 26.257 19.0174 25.5863 19.1083 24.8169C19.1992 24.0534 19.5962 23.3122 20.2993 22.5932C21.0203 21.8558 21.7734 21.4331 22.5587 21.3248C23.35 21.2165 24.0594 21.4602 24.6868 22.0558L23.8377 22.9242C23.4086 22.5463 22.9443 22.3903 22.4448 22.4561C21.9423 22.519 21.4571 22.7896 20.9894 23.268C20.5365 23.7311 20.2811 24.1965 20.223 24.6642C20.1619 25.129 20.3005 25.5267 20.6387 25.8574C21.0043 26.2149 21.4154 26.3248 21.8719 26.1871C22.2051 26.0719 22.5421 25.9009 22.8831 25.6741L24.4223 24.6669C25.7593 23.7811 26.9154 23.8148 27.8904 24.7682C28.5332 25.3968 28.8051 26.1245 28.7058 26.9513C28.6064 27.7601 28.1694 28.5605 27.3948 29.3527C26.5486 30.218 25.6965 30.678 24.8383 30.7328C23.9709 30.7787 23.2204 30.4918 22.5866 29.8721Z" fill="white"/>
<path d="M34.7632 22.7884C33.667 23.5994 32.5576 23.8875 31.4349 23.6526C30.3098 23.4143 29.2884 22.6751 28.3709 21.435C27.4509 20.1915 27.0466 18.9931 27.1581 17.8398C27.2671 16.6831 27.8868 15.6866 29.0173 14.8502C29.956 14.1557 30.9003 13.8308 31.8503 13.8753C32.8106 13.9123 33.6386 14.3042 34.3343 15.0511L33.3426 15.7848C32.8258 15.3084 32.241 15.0625 31.5882 15.0472C30.9389 15.0293 30.2905 15.2599 29.6431 15.7389C28.8689 16.3117 28.4182 16.9923 28.2912 17.7807C28.1651 18.5632 28.3834 19.3346 28.946 20.0951L29.8661 21.3387C30.3907 22.0478 31.0515 22.4574 31.8486 22.5674C32.6456 22.6774 33.4158 22.4574 34.1592 21.9074C34.7724 21.4538 35.1727 20.9058 35.3601 20.2635C35.5484 19.6153 35.5007 18.9668 35.2168 18.3181L36.2086 17.5844C36.6815 18.5173 36.7926 19.4449 36.542 20.3671C36.2777 21.2995 35.6848 22.1066 34.7632 22.7884Z" fill="white"/>
<path d="M41.0875 18.3556L40.0278 18.8947L35.7008 10.3887L39.7744 8.31645C40.5872 7.90297 41.3146 7.81026 41.9565 8.03832C42.5965 8.26257 43.1222 8.77921 43.5338 9.58822C43.785 10.082 43.8922 10.5653 43.8554 11.0382C43.8187 11.5111 43.6481 11.9134 43.3435 12.2452L43.3783 12.3136L43.8341 12.0818C44.1228 11.9349 44.3617 11.9018 44.5509 11.9825C44.744 12.0612 44.9139 12.2448 45.0607 12.5335L46.5968 15.553L45.5371 16.0921L43.8706 12.8162L39.4211 15.0797L41.0875 18.3556ZM37.2416 10.7953L38.9516 14.1567L41.766 12.725C42.2522 12.4777 42.5721 12.1667 42.7258 11.7921C42.8775 11.4137 42.852 11.0251 42.6491 10.6263L42.2636 9.8686C42.0492 9.447 41.7492 9.19561 41.3636 9.11443C40.9819 9.03132 40.546 9.11439 40.0561 9.36363L37.2416 10.7953Z" fill="white"/>
<path d="M49.6954 12.9925C48.6979 12.3969 47.97 11.3626 47.5118 9.8896C47.0497 8.40442 47.0671 7.1405 47.5639 6.09784C48.0569 5.04299 48.9768 4.30606 50.3236 3.88706C51.6664 3.46932 52.84 3.55496 53.8444 4.14399C54.845 4.7208 55.5763 5.7518 56.0384 7.23699C56.4979 8.71404 56.4811 9.97999 55.9881 11.0348C55.5008 12.079 54.5816 12.8113 53.2307 13.2315C51.8798 13.6518 50.7014 13.5721 49.6954 12.9925ZM48.511 8.86246L48.9078 10.1381C49.2015 11.0821 49.7066 11.7372 50.423 12.1034C51.1434 12.4684 51.9737 12.5047 52.9136 12.2122C53.8739 11.9135 54.5384 11.41 54.9072 10.7017C55.2787 9.98811 55.3195 9.16541 55.0297 8.23361L54.6328 6.95797C54.3391 6.01396 53.8325 5.36825 53.1131 5.02084C52.402 4.65743 51.5785 4.6213 50.6426 4.91245C49.6824 5.21119 49.0152 5.7133 48.6411 6.41876C48.267 7.12423 48.2236 7.9388 48.511 8.86246Z" fill="white"/>
<path d="M65.2899 10.478L59.6596 11.3361L58.2218 1.90166L59.3972 1.72255L60.6712 10.0827L65.1262 9.4038L65.2899 10.478Z" fill="white"/>
<path d="M73.5599 10.1141L67.8655 10.2129L67.6998 0.671061L68.8885 0.65042L69.0353 9.10582L73.5411 9.02758L73.5599 10.1141Z" fill="white"/>
<path d="M83.954 11.2953L80.1705 10.5268L82.07 1.17441L85.8536 1.94289C87.2192 2.22026 88.1363 2.81093 88.6049 3.71492C89.0736 4.6189 89.1484 5.856 88.8295 7.42621C88.5097 9.0006 87.9586 10.1084 87.1761 10.7495C86.3936 11.3907 85.3196 11.5726 83.954 11.2953ZM83.0189 2.47596L81.5519 9.69852L84.1578 10.2278C85.089 10.417 85.8176 10.3301 86.3436 9.96732C86.8745 9.60119 87.2401 8.92535 87.4402 7.93979L87.752 6.40508C87.9538 5.41117 87.8792 4.64375 87.5282 4.10282C87.178 3.55771 86.5435 3.19186 85.6248 3.00525L83.0189 2.47596Z" fill="white"/>
<path d="M91.3767 11.9112C90.9659 10.8244 91.0391 9.56178 91.5963 8.1233C92.158 6.67289 92.9576 5.69391 93.9951 5.18633C95.0371 4.66684 96.2158 4.66181 97.5311 5.17126C98.8424 5.67916 99.7082 6.47606 100.129 7.56194C100.553 8.63591 100.485 9.89809 99.9232 11.3485C99.3645 12.791 98.5641 13.7719 97.522 14.2914C96.491 14.806 95.3158 14.8079 93.9966 14.2969C92.6773 13.7859 91.804 12.9907 91.3767 11.9112ZM93.0175 7.94032L92.535 9.18608C92.1779 10.108 92.166 10.9351 92.4993 11.6674C92.8366 12.4012 93.4642 12.9459 94.3821 13.3015C95.3199 13.6647 96.1534 13.6836 96.8826 13.3583C97.6174 13.0305 98.161 12.4116 98.5134 11.5017L98.996 10.2559C99.353 9.33401 99.3579 8.51331 99.0105 7.79382C98.6796 7.06702 98.0572 6.52663 97.1433 6.17263C96.2055 5.8094 95.3707 5.7877 94.6391 6.10753C93.9074 6.42736 93.3669 7.03829 93.0175 7.94032Z" fill="white"/>
<path d="M100.76 17.0144L104.11 7.87096L105.177 8.52735L103.148 13.9502L102.182 16.3503L102.258 16.3972L108.455 10.5434L109.827 11.3873L107.408 19.5653L107.479 19.6089L109.173 17.6718L113.094 13.3967L114.177 14.0632L107.517 21.1704L106.112 20.3064L108.488 12.0874L108.434 12.0539L102.176 17.8851L100.76 17.0144Z" fill="white"/>
<path d="M111.444 24.1636L110.561 23.3674L116.952 16.2801L118.049 17.2689L116.42 26.6448L116.467 26.6876L118.34 24.4772L121.794 20.6464L122.668 21.434L116.277 28.5213L115.18 27.5325L116.819 18.1652L116.781 18.131L114.976 20.2473L111.444 24.1636Z" fill="white"/>
<path d="M128.554 38.0489C128.998 37.8036 129.439 37.7444 129.88 37.8712C130.32 37.998 130.659 38.2777 130.898 38.7104C131.133 39.1356 131.186 39.574 131.056 40.0257C130.928 40.4811 130.645 40.8294 130.209 41.0706C129.773 41.3117 129.328 41.3625 128.876 41.2228C128.425 41.0926 128.084 40.8206 127.856 40.4066C127.614 39.9702 127.558 39.5291 127.687 39.0832C127.817 38.641 128.106 38.2962 128.554 38.0489Z" fill="white"/>
</svg>
